<svg width="57" height="53" viewBox="0 0 57 53" fill="none" xmlns="http://www.w3.org/2000/svg">
<path d="M28.0513 24.3668C31.994 24.3668 35.2257 21.1351 35.2257 17.1925C35.2257 13.2498 31.994 10.0181 28.0513 10.0181C24.1087 10.0181 20.877 13.2498 20.877 17.1925C20.877 21.1998 24.1087 24.3668 28.0513 24.3668ZM28.0513 12.9912C30.3782 12.9912 32.3172 14.9303 32.3172 17.2571C32.3172 19.5839 30.3782 21.5229 28.0513 21.5229C25.7245 21.5229 23.7855 19.5839 23.7855 17.2571C23.7855 14.8656 25.6599 12.9912 28.0513 12.9912Z" fill="#989898"/>
<path d="M33.5451 53H54.6159C55.3915 53 56.0378 52.3537 56.0378 51.578C56.0378 51.2549 55.9085 50.9317 55.7146 50.6732L47.1829 35.161C46.9244 34.7085 46.472 34.45 45.8902 34.45H36.7768C40.7841 28.5683 44.7915 21.4585 44.7915 16.8049C44.7915 7.56219 37.2939 0 27.9866 0C18.6793 0 11.2463 7.56219 11.2463 16.8049C11.2463 21.3939 15.3183 28.5683 19.261 34.45H10.1476C9.63049 34.45 9.17805 34.7085 8.91951 35.161L0.193902 50.8671C-0.0646341 51.3195 -0.0646341 51.8366 0.193902 52.289C0.517073 52.7415 0.969512 53 1.48659 53H33.5451ZM35.8719 50.0915L38.4573 45.1146H49.4451L52.1598 50.0915H35.8719ZM14.1549 16.8049C14.1549 9.17805 20.3598 2.90854 28.0512 2.90854C35.678 2.90854 41.9476 9.11341 41.9476 16.8049C41.9476 20.9415 37.5524 28.3098 33.2866 34.45C32.5756 35.4195 31.8646 36.389 31.2183 37.3585C30.0549 38.9098 28.9561 40.3317 28.0512 41.4951C27.1463 40.3317 26.0476 38.9744 24.8841 37.3585C24.3671 36.6476 23.85 36.0012 23.3329 35.2256L23.2683 35.0963C23.139 34.9024 23.0098 34.7085 22.8159 34.5146C18.55 28.3098 14.1549 20.9415 14.1549 16.8049ZM10.9878 37.2939H19.4549L11.5049 50.0915H3.94268L10.9878 37.2939ZM22.1695 38.4573C24.6902 41.8829 26.7585 44.339 26.9524 44.6622C27.211 44.9854 27.5988 45.1793 28.0512 45.1793C28.5037 45.1793 28.8915 44.9854 29.15 44.6622C29.4085 44.339 31.8646 41.3659 34.7732 37.3585H45.1146L47.8293 42.3354H37.6171C37.1 42.3354 36.5829 42.6585 36.3244 43.111L32.6402 50.1561H14.8659L22.1695 38.4573Z" fill="#989898"/>
</svg>
